<?xml version="1.0" encoding="UTF-8" standalone="no"?>
<svg width="400" height="250" xmlns="http://www.w3.org/2000/svg">
  <!-- Window Frame -->
  <rect x="50" y="30" width="300" height="200" rx="5" ry="5" fill="#f0f0f0" stroke="#888" stroke-width="2"/>
  
  <!-- Title Bar -->
  <rect x="50" y="30" width="300" height="25" rx="5" ry="5" fill="#4682B4" stroke="#4682B4" stroke-width="0"/>
  <circle cx="65" cy="42" r="5" fill="#ff6347"/>
  <circle cx="85" cy="42" r="5" fill="#ffd700"/>
  <circle cx="105" cy="42" r="5" fill="#32cd32"/>
  <text x="200" y="47" text-anchor="middle" font-family="Arial" font-size="12" fill="white">Markdown Viewer</text>
  
  <!-- Content Area -->
  <rect x="60" y="65" width="280" height="155" fill="white" stroke="#ddd" stroke-width="1"/>
  
  <!-- Sidebar -->
  <rect x="60" y="65" width="80" height="155" fill="#f8f8f8" stroke="#ddd" stroke-width="1"/>
  <line x1="70" y1="85" x2="130" y2="85" stroke="#ccc" stroke-width="1"/>
  <line x1="70" y1="105" x2="130" y2="105" stroke="#ccc" stroke-width="1"/>
  <line x1="70" y1="125" x2="130" y2="125" stroke="#ccc" stroke-width="1"/>
  <line x1="70" y1="145" x2="130" y2="145" stroke="#ccc" stroke-width="1"/>
  <line x1="70" y1="165" x2="130" y2="165" stroke="#ccc" stroke-width="1"/>
  
  <!-- Content -->
  <line x1="150" y1="85" x2="330" y2="85" stroke="#ccc" stroke-width="1"/>
  <line x1="150" y1="105" x2="280" y2="105" stroke="#ccc" stroke-width="1"/>
  <line x1="150" y1="125" x2="330" y2="125" stroke="#ccc" stroke-width="1"/>
  <line x1="150" y1="145" x2="300" y2="145" stroke="#ccc" stroke-width="1"/>
  <line x1="150" y1="165" x2="330" y2="165" stroke="#ccc" stroke-width="1"/>
  <line x1="150" y1="185" x2="250" y2="185" stroke="#ccc" stroke-width="1"/>
</svg>
